<?xml version="1.0" encoding="utf-8" ?><svg xmlns="http://www.w3.org/2000/svg" xmlns:xlink="http://www.w3.org/1999/xlink" width="200" height="200" viewBox="0 0 200 200"><path fill="white" d="M0 0L200 0L200 9.34639L200 21.9244L200 34.107L200 53.5139L200 87.6904L200 106.874L200 112.835L200 169.732L200 170.72L200 200L158.999 200L156.047 200L148.481 200L145.713 200L135 200L132.008 200L125.387 200L115.966 200L111.507 200L108.952 200L102.969 200L99.8807 200L94.9644 200L90.2475 200L80.685 200L76.0901 200L62.9998 200L58.8308 200L51.4308 200L40.1289 200L0 200L0 170.732L0 169.711L0 108.435L0 106.704L0 87.9738L0 73.5351L0 67.6235L0 64.352L0 61.1766L0 0Z"/><path fill="#FEA239" d="M0 0L200 0L200 9.34639L200 21.9244L200 34.107L200 53.5139L200 87.6904C196.825 88.4311 189.129 87.94 185.425 87.9378L151.793 87.9184L53.5644 87.9235C35.7147 87.9255 17.8473 87.7508 0 87.9738L0 73.5351L0 67.6235L0 64.352L0 61.1766L0 0Z"/><path fill="#FEA239" d="M0 73.5351C5.35015 73.5219 10.9985 72.5373 16.3462 71.9969L48.8757 68.7194L160.204 57.4888L186.821 54.7169C191.151 54.2674 195.662 53.4821 200 53.5139L200 87.6904C196.825 88.4311 189.129 87.94 185.425 87.9378L151.793 87.9184L53.5644 87.9235C35.7147 87.9255 17.8473 87.7508 0 87.9738L0 73.5351Z"/><path fill="white" d="M0 67.6235C3.27985 67.3318 6.66383 66.5442 9.91707 65.9886L28.9979 62.7715L97.0748 51.428L171.494 38.9284C177.636 37.8794 183.783 36.8644 189.936 35.8836C193.257 35.3432 196.744 34.9483 200 34.107L200 53.5139C195.662 53.4821 191.151 54.2674 186.821 54.7169L160.204 57.4888L48.8757 68.7194L16.3462 71.9969C10.9985 72.5373 5.35015 73.5219 0 73.5351L0 67.6235Z"/><path fill="#FEA239" d="M0 64.352C3.12289 63.4992 6.46972 63.0039 9.64877 62.336L30.667 57.872L110.188 40.8555L172.001 27.6488L188.64 24.0594C192.39 23.2501 196.18 22.3191 200 21.9244L200 34.107C196.744 34.9483 193.257 35.3432 189.936 35.8836C183.783 36.8644 177.636 37.8794 171.494 38.9284L97.0748 51.428L28.9979 62.7715L9.91707 65.9886C6.66383 66.5442 3.27985 67.3318 0 67.6235L0 64.352Z"/><path fill="white" d="M0 61.1766L131.913 27.1029L173.722 16.3469C179.364 14.9262 184.997 13.4654 190.619 11.9646C193.75 11.1351 196.949 10.4367 200 9.34639L200 21.9244C196.18 22.3191 192.39 23.2501 188.64 24.0594L172.001 27.6488L110.188 40.8555L30.667 57.872L9.64877 62.336C6.46972 63.0039 3.12289 63.4992 0 64.352L0 61.1766Z"/><path fill="white" d="M0 170.732L200 170.72L200 200L158.999 200L156.047 200L148.481 200L145.713 200L135 200L132.008 200L125.387 200L115.966 200L111.507 200L108.952 200L102.969 200L99.8807 200L94.9644 200L90.2475 200L80.685 200L76.0901 200L62.9998 200L58.8308 200L51.4308 200L40.1289 200L0 200L0 170.732Z"/><path fill="#363536" d="M108.773 182.753L111.92 182.749C111.955 186.242 112.597 197.4 111.543 199.911C111.531 199.94 111.519 199.97 111.507 200L108.952 200L102.969 200L99.8807 200C99.0973 196.243 99.5814 186.892 99.6841 182.728L103.111 182.796C103.144 185.035 103.13 187.275 103.07 189.513L108.765 189.501L108.773 182.753Z"/><path fill="white" d="M103.074 192.501L108.771 192.492C108.759 194.984 108.627 197.525 108.952 200L102.969 200C103.063 197.501 103.098 195.001 103.074 192.501Z"/><path fill="#363536" d="M54.7647 182.757L57.9543 182.741C57.9469 185.612 57.266 194.329 59.2621 196.435C59.6945 196.891 60.2574 197.112 60.8835 197.111C61.5707 197.109 62.1947 196.829 62.6587 196.324C64.6326 194.176 63.6879 185.842 63.7813 182.771L67.2476 182.739C67.3058 186.955 68.3672 195.395 65.3019 198.493C64.6718 199.13 63.7694 199.544 62.9998 200L58.8308 200C56.8055 198.821 55.6487 197.867 55.0061 195.483C54.0697 192.008 54.7282 186.478 54.7647 182.757Z"/><path fill="#363536" d="M115.761 183C118.759 183.006 122.14 182.675 125.075 183.225C125.508 183.682 125.438 183.938 125.494 184.552C125.214 185.152 125.08 185.432 124.419 185.668C123.002 186.172 120.794 185.682 119.249 185.753L119.212 189.506C121.072 189.458 122.616 189.202 124.217 190.341C124.3 190.506 124.525 190.814 124.462 190.983C124.24 191.575 123.54 191.954 122.983 192.182C121.98 192.592 120.354 192.437 119.258 192.447L119.26 196.78L125.516 196.783C125.477 197.847 125.483 198.941 125.387 200L115.966 200C115.21 196.208 115.738 187.232 115.761 183Z"/><path fill="#363536" d="M47.2061 185.725C45.6866 185.75 41.934 186.236 40.8489 185.278C40.5915 185.051 40.5012 184.676 40.4958 184.335C40.4912 184.045 40.5459 183.498 40.7633 183.314C41.6447 182.57 50.3659 183.038 52.1346 182.971C49.958 187.643 47.5466 192.207 45.1952 196.793C46.8184 196.76 50.3671 196.184 51.5312 197.247C51.7198 197.42 51.8506 197.802 51.857 198.06C51.8721 198.656 51.6474 199.443 51.4308 200L40.1289 200C41.5675 195.286 44.8852 190.122 47.2061 185.725Z"/><path fill="#363536" d="M90.2475 200C87.6607 198.608 85.8252 197.561 84.9298 194.563C84.1454 191.937 84.3171 188.879 85.6551 186.457C86.5903 184.764 88.0504 183.529 89.9262 183.005C91.447 182.579 94.2805 182.278 95.6961 183.101C95.9263 183.235 96.1219 183.424 96.3032 183.616C96.4282 184.214 96.46 184.566 96.0686 185.078C95.6716 185.597 95.1315 185.752 94.5046 185.783C92.728 185.872 90.8088 185.214 89.4227 186.744C88.1561 188.142 88.149 190.714 88.2681 192.497C88.3543 193.788 88.6948 195.017 89.6934 195.899C91.6566 197.632 96.4484 196.239 96.5452 197.867C96.5811 198.47 96.3866 198.815 96.0939 199.328L94.9644 200L90.2475 200Z"/><path fill="#363536" d="M76.0901 200C73.5008 198.595 71.6053 197.173 70.7511 194.238C70.0546 191.844 70.2027 188.816 71.4199 186.607C72.3718 184.849 73.9979 183.554 75.9243 183.019C77.6687 182.517 80.1336 182.452 81.8415 183.064C82.1815 183.438 82.3221 183.526 82.3069 184.054C82.2905 184.627 82.001 185.305 81.8172 185.849C79.8075 185.565 77.6412 185.043 75.8725 186.359C74.7174 187.219 74.2383 188.655 74.0581 190.033C73.8113 191.919 74.0958 194.12 75.3121 195.638C75.8669 196.331 76.6023 196.855 77.5015 196.949C78.8471 197.09 80.3606 196.797 81.7261 196.748C82.1587 197.275 82.4776 197.63 82.5205 198.338C82.218 199.225 81.814 199.445 80.9988 199.848C80.8946 199.899 80.7899 199.95 80.685 200L76.0901 200Z"/><path fill="#363536" d="M131.735 185.721C130.476 185.766 128.727 186.073 127.716 185.162C127.383 184.863 127.341 184.687 127.23 184.262C127.492 183.653 127.62 183.499 128.163 183.12C131.729 183.027 135.68 182.622 139.212 183.165C139.645 183.739 139.49 184.186 139.468 184.891C139.192 185.35 139.064 185.643 138.484 185.761C137.566 185.949 136.218 185.764 135.272 185.729C135.263 190.352 135.664 195.45 135 200L132.008 200C131.176 196.096 131.829 189.936 131.735 185.721Z"/><path fill="#363536" d="M145.488 185.743C143.844 185.788 142.311 186.052 141.023 184.83C140.916 184.728 140.842 184.619 140.775 184.489C140.818 184.085 140.782 183.981 141.107 183.713C142.335 182.699 150.072 182.809 151.896 183.023C152.163 183.054 152.429 183.096 152.693 183.148C153.082 183.84 152.984 184.35 152.977 185.123C152.376 185.728 151.852 185.759 151.019 185.764C150.249 185.764 149.48 185.755 148.711 185.737C148.652 190.48 148.715 195.265 148.481 200L145.713 200C144.995 195.911 145.482 190.047 145.488 185.743Z"/><path fill="#363536" d="M155.781 182.777L159.235 182.757C159.242 188.408 159.561 194.384 158.999 200L156.047 200C155.202 196.018 155.762 187.147 155.781 182.777Z"/><path fill="#516368" d="M29.5363 106.676C31.8891 106.697 34.2641 106.787 36.614 106.661L29.6885 153.557L23.3284 153.536C21.7744 143.223 20.1911 132.734 18.1593 122.509C17.3106 129.598 15.9816 136.648 14.8079 143.69C14.2661 146.941 13.6091 150.234 13.3216 153.517L6.80896 153.535L2.21516 121.845C1.76965 118.81 1.08737 110.9 0 108.435L0 106.704C2.38035 106.711 4.77182 106.765 7.15029 106.667C7.58009 113.114 8.45838 119.559 9.21346 125.976C9.63953 129.597 9.85817 133.332 10.4563 136.921C11.5628 130.212 12.7214 123.512 13.9319 116.821C14.5137 113.518 15.3628 110.072 15.5821 106.736C17.3633 106.727 19.1477 106.694 20.9286 106.716C22.0831 117.118 24.6368 127.48 26.1959 137.847C27.3718 127.464 28.4852 117.073 29.5363 106.676Z"/><path fill="#7A9195" d="M177.758 106.676C182.765 106.831 187.804 106.705 192.815 106.708C195.185 106.709 197.65 106.577 200 106.874L200 112.835C197.442 113.21 194.575 112.994 191.98 112.997C191.767 126.486 191.975 140.008 191.986 153.5L185.285 153.513C185.511 140.016 185.38 126.477 185.304 112.977L177.706 112.993L177.758 106.676Z"/><path fill="#1C1117" d="M0 169.711L200 169.732L200 170.72L0 170.732L0 169.711Z"/><path fill="#7A9195" d="M131.017 106.678C136.651 106.981 144.342 105.286 148.951 109.291C151.303 111.335 152.219 114.22 152.435 117.236C152.73 121.357 152.518 125.61 152.52 129.745C152.522 134.403 153.069 140.436 152.107 144.912C151.655 147.02 150.783 148.655 149.377 150.275C144.089 154.545 137.398 153.542 131.011 153.515C131.256 137.916 131.087 122.279 131.017 106.678Z"/><path fill="white" d="M137.764 112.871C139.801 112.978 141.717 113.094 143.711 113.564C144.386 114.15 145.2 114.937 145.44 115.82C146.447 119.511 146.287 139.015 145.679 143.159C145.54 144.103 145.237 144.854 144.769 145.68L144.663 145.787C143.004 147.437 139.895 147.062 137.726 147.062L137.764 112.871Z"/><path fill="#516368" d="M57.2454 106.676L101.283 106.707L101.267 113.004L93.5147 112.976L93.4989 153.573C91.2345 153.496 88.9549 153.525 86.6885 153.505C86.8412 144.886 86.7324 136.246 86.7339 127.625C86.7522 122.748 86.7352 117.871 86.6828 112.994L71.5179 112.995L71.503 153.533L65.0236 153.501L65.0044 112.999L57.2783 113.008L57.2454 106.676Z"/><path fill="#516368" d="M44.9538 106.642C46.8658 106.765 48.8157 106.676 50.7321 106.663C53.6542 122.361 57.8502 137.841 60.9375 153.514L54.2953 153.52C53.936 151.599 53.1285 144.437 52.0497 143.355C51.9234 143.228 51.2693 143.279 51.0625 143.276L43.3698 143.236C42.3783 146.484 41.9925 150.164 41.4127 153.516L34.6695 153.506C36.2918 147.866 37.2576 141.821 38.5323 136.074C40.7043 126.282 43.0625 116.491 44.9538 106.642Z"/><path fill="white" d="M47.7475 120.396C48.7778 122.081 50.5028 134.101 51.0979 137.028L47.4846 137.026L44.4582 137.007C45.645 131.485 46.6591 125.938 47.7475 120.396Z"/><path fill="#7A9195" d="M163.803 106.728C165.665 106.727 167.528 106.685 169.389 106.66C170.345 112.5 171.956 118.35 173.268 124.124L179.783 153.49L173.121 153.51C172.428 151.001 172.253 145.238 170.813 143.347L169.812 143.251L162.11 143.268C161.429 146.674 160.775 150.086 160.148 153.502C157.867 153.514 155.586 153.498 153.306 153.454C155.248 147.608 156.236 141.174 157.568 135.144C159.659 125.684 161.939 116.233 163.803 106.728Z"/><path fill="white" d="M166.378 120.665C166.4 120.68 166.425 120.693 166.445 120.711C167.15 121.35 169.543 135.075 169.649 136.794C169.014 137.162 168.044 137.023 167.304 137.033L163.397 137.022C163.852 131.629 165.364 125.992 166.378 120.665Z"/><path fill="#516368" d="M112.125 106.32C112.506 106.283 112.888 106.266 113.27 106.269C116.331 106.308 119.24 107.358 121.384 109.58C124.368 112.673 124.576 116.2 124.517 120.255C122.248 120.318 119.983 120.267 117.714 120.222C117.732 119.425 117.767 118.603 117.682 117.809C117.522 116.309 116.9 114.834 115.681 113.887C114.768 113.178 113.573 112.838 112.425 113.007C111.324 113.163 110.335 113.765 109.69 114.672C108.484 116.352 108.384 119.731 108.776 121.732C109.53 125.588 117.562 126.792 120.526 128.852C122.692 130.357 123.786 132.693 124.236 135.227C125.031 139.702 124.827 145.708 122.118 149.558C120.297 152.146 117.962 153.198 114.931 153.73C114.532 153.749 114.133 153.764 113.734 153.774C110.503 153.854 107.416 153.045 105.039 150.751C101.985 147.802 101.661 144.247 101.599 140.244L108.22 140.23C108.239 141.104 108.237 142.012 108.346 142.88C108.511 144.193 109.287 145.501 110.348 146.294C111.365 147.053 112.709 147.408 113.967 147.21C115.033 147.043 115.987 146.454 116.614 145.575C118.072 143.56 117.955 139.66 117.594 137.3C116.85 132.437 109.382 131.886 105.888 129.266C103.671 127.603 102.564 125.342 102.186 122.629C101.648 118.773 101.973 113.768 104.413 110.558C106.381 107.968 108.963 106.75 112.125 106.32Z"/></svg>